<svg width="22" height="19" viewBox="0 0 22 19" fill="none" xmlns="http://www.w3.org/2000/svg">
<path d="M2.5 6C3.54 6 4.84 4.5 6.75 4.5C8.27 4.5 9.5 5.73 9.5 7.25C9.5 9.29 7.51 10.4 5.59 11.47C3.42 12.67 2 13.57 2 15C2 16.1 2.9 17 4 17V19C1.79 19 0 17.21 0 15C0 12.29 2.56 10.86 4.62 9.72C6.04 8.93 7.5 8.12 7.5 7.25C7.5 6.84 7.16 6.5 6.75 6.5C5.5 6.5 4.25 8 2.5 8C1.12 8 0 6.88 0 5.5C0 3.45 2.17 0.83 3 0L4.41 1.41C3.41 2.42 2 4.43 2 5.5C2 5.78 2.22 6 2.5 6ZM6 19H9.75L17.81 10.94L14.06 7.19L6 15.25V19ZM8 16.08L14.06 10.02L14.98 10.94L8.92 17H8V16.08ZM18.37 4.29C17.98 3.9 17.35 3.9 16.96 4.29L15.13 6.12L18.88 9.87L20.71 8.04C21.1 7.65 21.1 7.02 20.71 6.63L18.37 4.29Z" fill="#191919"/>
</svg>
