<svg width="16" height="16" viewBox="0 0 16 16" fill="none" xmlns="http://www.w3.org/2000/svg">
<path d="M4.57143 9.14287H2.28571V11.4286H4.57143V9.14287Z" fill="#B52020"/>
<path d="M2.28571 6.85715H0V9.14286H2.28571V6.85715Z" fill="#B52020"/>
<path d="M11.4286 11.4286H9.14286V13.7143H11.4286V11.4286Z" fill="#B52020"/>
<path d="M6.85714 11.4286H4.57143V13.7143H6.85714V11.4286Z" fill="#B52020"/>
<path d="M9.14286 13.7143H6.85714V16H9.14286V13.7143Z" fill="#B52020"/>
<path d="M13.7143 9.14287H11.4286V11.4286H13.7143V9.14287Z" fill="#B52020"/>
<path d="M16 6.85715H13.7143V9.14286H16V6.85715Z" fill="#B52020"/>
<path d="M16 4.57143H13.7143V6.85714H16V4.57143Z" fill="#B52020"/>
<path d="M9.14286 2.28571H6.85714V4.57142H9.14286V2.28571Z" fill="#B52020"/>
<path d="M6.85714 0H4.57143V2.28571H6.85714V0Z" fill="#B52020"/>
<path d="M4.57143 0H2.28571V2.28571H4.57143V0Z" fill="#B52020"/>
<path d="M2.28571 2.28571H0V4.57142H2.28571V2.28571Z" fill="#B52020"/>
<path d="M2.28571 4.57143H0V6.85714H2.28571V4.57143Z" fill="#B52020"/>
<path d="M13.7143 0H11.4286V2.28571H13.7143V0Z" fill="#B52020"/>
<path d="M11.4286 0H9.14286V2.28571H11.4286V0Z" fill="#B52020"/>
<path d="M16 2.28571H13.7143V4.57142H16V2.28571Z" fill="#B52020"/>
<path d="M6.85714 2.28571H2.28571V4.57142H6.85714V2.28571Z" fill="#F05252"/>
<path d="M4.57143 4.57143H2.28571V6.85714H4.57143V4.57143Z" fill="#F05252"/>
<path d="M6.85714 4.57143H4.57143V6.85714H6.85714V4.57143Z" fill="#DD2929"/>
<path d="M6.85714 6.85715H2.28571V9.14286H6.85714V6.85715Z" fill="#DD2929"/>
<path d="M9.14286 9.14287H4.57143V11.4286H9.14286V9.14287Z" fill="#DD2929"/>
<path d="M13.7143 2.28571H9.14286V4.57142H13.7143V2.28571Z" fill="#F05252"/>
<path d="M13.7143 4.57143H11.4286V6.85714H13.7143V4.57143Z" fill="#F05252"/>
<path d="M11.4286 4.57143H9.14286V6.85714H11.4286V4.57143Z" fill="#DD2929"/>
<path d="M13.7143 6.85715H9.14286V9.14286H13.7143V6.85715Z" fill="#DD2929"/>
<path d="M9.14286 11.4286H6.85714V13.7143H9.14286V11.4286Z" fill="#DD2929"/>
<path d="M11.4286 9.14287H9.14286V11.4286H11.4286V9.14287Z" fill="#DD2929"/>
<path d="M9.14286 4.57143H6.85714V9.14286H9.14286V4.57143Z" fill="#DD2929"/>
</svg>
