<svg width="205" height="16" viewBox="0 0 205 16" fill="none" xmlns="http://www.w3.org/2000/svg">
<path d="M0 16V0H13.3774V2.28571H15.607V9.14286H13.3774V11.4286H4.45915V16H0ZM4.45915 9.14286H11.1479V2.28571H4.45915V9.14286ZM24.5253 2.28571V0H28.9845V2.28571H24.5253ZM20.0662 16V13.7143H24.5253V6.85714H22.2957V4.57143H28.9845V13.7143H33.4436V16H20.0662ZM35.6732 16V13.7143H37.9028V11.4286H40.1323V9.14286H37.9028V6.85714H35.6732V4.57143H40.1323V6.85714H42.3619V9.14286H44.5915V6.85714H46.821V4.57143H51.2802V6.85714H49.0506V9.14286H46.821V11.4286H49.0506V13.7143H51.2802V16H46.821V13.7143H44.5915V11.4286H42.3619V13.7143H40.1323V16H35.6732ZM55.7393 16V13.7143H53.5098V6.85714H55.7393V4.57143H66.8872V6.85714H69.1168V11.4286H57.9689V13.7143H66.8872V16H55.7393ZM57.9689 9.14286H64.6576V6.85714H57.9689V9.14286ZM73.5759 16V13.7143H78.0351V2.28571H75.8055V0H82.4942V13.7143H86.9534V16H73.5759Z" fill="#DD2929"/>
<path d="M99.8195 16V0H115.427V2.28571H104.279V6.85714H113.197V9.14286H104.279V13.7143H115.427V16H99.8195ZM119.886 16V13.7143H117.656V6.85714H119.886V4.57143H128.804V0H133.263V16H119.886ZM122.115 13.7143H128.804V6.85714H122.115V13.7143ZM142.181 2.28571V0H146.641V2.28571H142.181ZM137.722 16V13.7143H142.181V6.85714H139.952V4.57143H146.641V13.7143H151.1V16H137.722ZM160.018 16V6.85714H155.559V4.57143H160.018V0H164.477V4.57143H168.936V6.85714H164.477V16H160.018ZM173.395 16V13.7143H171.166V6.85714H173.395V4.57143H184.543V6.85714H186.773V13.7143H184.543V16H173.395ZM175.625 13.7143H182.314V6.85714H175.625V13.7143ZM195.691 6.85714H197.921V9.14286H195.691V16H191.232V4.57143H195.691V6.85714ZM204.61 4.57143V6.85714H197.921V4.57143H204.61Z" fill="#F6F6F6"/>
</svg>
