<svg width="19" height="13" viewBox="0 0 19 13" fill="none" xmlns="http://www.w3.org/2000/svg">
<path d="M1.05556 12.6667H17.9444C18.525 12.6667 19 12.1917 19 11.6111C19 11.0306 18.525 10.5556 17.9444 10.5556H1.05556C0.475 10.5556 0 11.0306 0 11.6111C0 12.1917 0.475 12.6667 1.05556 12.6667ZM1.05556 7.38889H17.9444C18.525 7.38889 19 6.91389 19 6.33333C19 5.75278 18.525 5.27778 17.9444 5.27778H1.05556C0.475 5.27778 0 5.75278 0 6.33333C0 6.91389 0.475 7.38889 1.05556 7.38889ZM0 1.05556C0 1.63611 0.475 2.11111 1.05556 2.11111H17.9444C18.525 2.11111 19 1.63611 19 1.05556C19 0.475 18.525 0 17.9444 0H1.05556C0.475 0 0 0.475 0 1.05556Z" fill="#191919"/>
</svg>
